<mxfile host="app.diagrams.net" modified="2024-03-15T01:04:03.022Z" agent="Mozilla/5.0 (Windows NT 10.0; Win64; x64) AppleWebKit/537.36 (KHTML, like Gecko) Chrome/122.0.0.0 Safari/537.36" etag="xWhab1JMl8B7-w3vdV4v" version="24.0.6" type="device">
  <diagram name="Página-1" id="trbuVslvOLxorggExVav">
    <mxGraphModel dx="2049" dy="1117" grid="1" gridSize="10" guides="1" tooltips="1" connect="1" arrows="1" fold="1" page="1" pageScale="1" pageWidth="827" pageHeight="1169" math="0" shadow="0">
      <root>
        <mxCell id="0" />
        <mxCell id="1" parent="0" />
        <mxCell id="CR3bCK5xrk-jNO6QwSpg-9" value="Funcionário" style="swimlane;startSize=20;horizontal=0;html=1;whiteSpace=wrap;" vertex="1" parent="1">
          <mxGeometry x="254" y="70" width="1186" height="150" as="geometry" />
        </mxCell>
        <mxCell id="CR3bCK5xrk-jNO6QwSpg-66" value="" style="edgeStyle=orthogonalEdgeStyle;rounded=0;orthogonalLoop=1;jettySize=auto;html=1;" edge="1" parent="CR3bCK5xrk-jNO6QwSpg-9" source="CR3bCK5xrk-jNO6QwSpg-67" target="CR3bCK5xrk-jNO6QwSpg-70">
          <mxGeometry relative="1" as="geometry" />
        </mxCell>
        <mxCell id="CR3bCK5xrk-jNO6QwSpg-67" value="&lt;span style=&quot;font-size: 10px;&quot;&gt;Recebe envento&lt;/span&gt;" style="rounded=1;whiteSpace=wrap;html=1;fillColor=#dae8fc;strokeColor=#6c8ebf;" vertex="1" parent="CR3bCK5xrk-jNO6QwSpg-9">
          <mxGeometry x="1004.75" y="55" width="80" height="40" as="geometry" />
        </mxCell>
        <mxCell id="CR3bCK5xrk-jNO6QwSpg-68" value="" style="edgeStyle=orthogonalEdgeStyle;rounded=0;orthogonalLoop=1;jettySize=auto;html=1;" edge="1" parent="CR3bCK5xrk-jNO6QwSpg-9" source="CR3bCK5xrk-jNO6QwSpg-69" target="CR3bCK5xrk-jNO6QwSpg-67">
          <mxGeometry relative="1" as="geometry" />
        </mxCell>
        <mxCell id="CR3bCK5xrk-jNO6QwSpg-69" value="" style="ellipse;whiteSpace=wrap;html=1;aspect=fixed;fillColor=#d5e8d4;strokeColor=#82b366;fontStyle=1" vertex="1" parent="CR3bCK5xrk-jNO6QwSpg-9">
          <mxGeometry x="946" y="61.25" width="27.5" height="27.5" as="geometry" />
        </mxCell>
        <mxCell id="CR3bCK5xrk-jNO6QwSpg-70" value="" style="ellipse;whiteSpace=wrap;html=1;aspect=fixed;fillColor=#f8cecc;strokeColor=#b85450;" vertex="1" parent="CR3bCK5xrk-jNO6QwSpg-9">
          <mxGeometry x="1116" y="61.25" width="27.5" height="27.5" as="geometry" />
        </mxCell>
        <mxCell id="CR3bCK5xrk-jNO6QwSpg-80" value="Boolean" style="text;html=1;align=center;verticalAlign=middle;resizable=0;points=[];autosize=1;strokeColor=none;fillColor=none;" vertex="1" parent="CR3bCK5xrk-jNO6QwSpg-9">
          <mxGeometry x="1066" y="110" width="70" height="30" as="geometry" />
        </mxCell>
        <mxCell id="CR3bCK5xrk-jNO6QwSpg-81" value="Data indisponível" style="text;html=1;align=center;verticalAlign=middle;resizable=0;points=[];autosize=1;strokeColor=none;fillColor=none;" vertex="1" parent="CR3bCK5xrk-jNO6QwSpg-9">
          <mxGeometry x="927" y="120" width="120" height="30" as="geometry" />
        </mxCell>
        <mxCell id="CR3bCK5xrk-jNO6QwSpg-10" value="Cliente" style="swimlane;startSize=20;horizontal=0;html=1;whiteSpace=wrap;" vertex="1" parent="1">
          <mxGeometry x="254" y="260" width="1186" height="180" as="geometry">
            <mxRectangle x="254" y="300" width="40" height="70" as="alternateBounds" />
          </mxGeometry>
        </mxCell>
        <mxCell id="CR3bCK5xrk-jNO6QwSpg-19" value="" style="edgeStyle=orthogonalEdgeStyle;rounded=0;orthogonalLoop=1;jettySize=auto;html=1;" edge="1" parent="CR3bCK5xrk-jNO6QwSpg-10" source="CR3bCK5xrk-jNO6QwSpg-12" target="CR3bCK5xrk-jNO6QwSpg-17">
          <mxGeometry relative="1" as="geometry" />
        </mxCell>
        <mxCell id="CR3bCK5xrk-jNO6QwSpg-12" value="" style="ellipse;whiteSpace=wrap;html=1;aspect=fixed;fillColor=#d5e8d4;strokeColor=#82b366;" vertex="1" parent="CR3bCK5xrk-jNO6QwSpg-10">
          <mxGeometry x="46" y="46.25" width="27.5" height="27.5" as="geometry" />
        </mxCell>
        <mxCell id="CR3bCK5xrk-jNO6QwSpg-45" style="edgeStyle=orthogonalEdgeStyle;rounded=0;orthogonalLoop=1;jettySize=auto;html=1;" edge="1" parent="CR3bCK5xrk-jNO6QwSpg-10" source="CR3bCK5xrk-jNO6QwSpg-15" target="CR3bCK5xrk-jNO6QwSpg-44">
          <mxGeometry relative="1" as="geometry" />
        </mxCell>
        <mxCell id="CR3bCK5xrk-jNO6QwSpg-15" value="&lt;font style=&quot;font-size: 10px;&quot;&gt;Logar no aplicativo&lt;/font&gt;" style="rounded=1;whiteSpace=wrap;html=1;fillColor=#dae8fc;strokeColor=#6c8ebf;" vertex="1" parent="CR3bCK5xrk-jNO6QwSpg-10">
          <mxGeometry x="406" y="20" width="80" height="40" as="geometry" />
        </mxCell>
        <mxCell id="CR3bCK5xrk-jNO6QwSpg-20" style="edgeStyle=orthogonalEdgeStyle;rounded=0;orthogonalLoop=1;jettySize=auto;html=1;entryX=0;entryY=0.5;entryDx=0;entryDy=0;" edge="1" parent="CR3bCK5xrk-jNO6QwSpg-10" source="CR3bCK5xrk-jNO6QwSpg-17" target="CR3bCK5xrk-jNO6QwSpg-15">
          <mxGeometry relative="1" as="geometry">
            <Array as="points">
              <mxPoint x="131" y="26" />
              <mxPoint x="296" y="26" />
            </Array>
          </mxGeometry>
        </mxCell>
        <mxCell id="CR3bCK5xrk-jNO6QwSpg-30" style="edgeStyle=orthogonalEdgeStyle;rounded=0;orthogonalLoop=1;jettySize=auto;html=1;entryX=0;entryY=0.5;entryDx=0;entryDy=0;" edge="1" parent="CR3bCK5xrk-jNO6QwSpg-10" source="CR3bCK5xrk-jNO6QwSpg-17" target="CR3bCK5xrk-jNO6QwSpg-29">
          <mxGeometry relative="1" as="geometry">
            <Array as="points">
              <mxPoint x="131" y="110" />
            </Array>
          </mxGeometry>
        </mxCell>
        <mxCell id="CR3bCK5xrk-jNO6QwSpg-17" value="" style="rhombus;whiteSpace=wrap;html=1;fillColor=#fff2cc;strokeColor=#d6b656;" vertex="1" parent="CR3bCK5xrk-jNO6QwSpg-10">
          <mxGeometry x="116" y="45" width="30" height="30" as="geometry" />
        </mxCell>
        <mxCell id="CR3bCK5xrk-jNO6QwSpg-23" value="&lt;font style=&quot;font-size: 7px;&quot;&gt;Cliente Registrado&lt;/font&gt;" style="text;html=1;align=center;verticalAlign=middle;resizable=0;points=[];autosize=1;strokeColor=none;fillColor=none;" vertex="1" parent="CR3bCK5xrk-jNO6QwSpg-10">
          <mxGeometry x="136" y="43.75" width="80" height="30" as="geometry" />
        </mxCell>
        <mxCell id="CR3bCK5xrk-jNO6QwSpg-29" value="&lt;span style=&quot;font-size: 10px;&quot;&gt;Registrar no aplicativo&lt;/span&gt;" style="rounded=1;whiteSpace=wrap;html=1;fillColor=#dae8fc;strokeColor=#6c8ebf;" vertex="1" parent="CR3bCK5xrk-jNO6QwSpg-10">
          <mxGeometry x="160" y="90" width="80" height="40" as="geometry" />
        </mxCell>
        <mxCell id="CR3bCK5xrk-jNO6QwSpg-57" value="" style="edgeStyle=orthogonalEdgeStyle;rounded=0;orthogonalLoop=1;jettySize=auto;html=1;" edge="1" parent="CR3bCK5xrk-jNO6QwSpg-10" source="CR3bCK5xrk-jNO6QwSpg-44" target="CR3bCK5xrk-jNO6QwSpg-55">
          <mxGeometry relative="1" as="geometry" />
        </mxCell>
        <mxCell id="CR3bCK5xrk-jNO6QwSpg-44" value="&lt;font style=&quot;font-size: 10px;&quot;&gt;Verifica agenda de eventos&lt;/font&gt;" style="rounded=1;whiteSpace=wrap;html=1;fillColor=#dae8fc;strokeColor=#6c8ebf;" vertex="1" parent="CR3bCK5xrk-jNO6QwSpg-10">
          <mxGeometry x="616" y="20" width="80" height="40" as="geometry" />
        </mxCell>
        <mxCell id="CR3bCK5xrk-jNO6QwSpg-55" value="&lt;font style=&quot;font-size: 10px;&quot;&gt;Agendar evento&lt;/font&gt;" style="rounded=1;whiteSpace=wrap;html=1;fillColor=#dae8fc;strokeColor=#6c8ebf;" vertex="1" parent="CR3bCK5xrk-jNO6QwSpg-10">
          <mxGeometry x="876" y="20" width="80" height="40" as="geometry" />
        </mxCell>
        <mxCell id="CR3bCK5xrk-jNO6QwSpg-73" value="&lt;font size=&quot;1&quot;&gt;Login e senha&lt;/font&gt;" style="text;html=1;align=center;verticalAlign=middle;resizable=0;points=[];autosize=1;strokeColor=none;fillColor=none;" vertex="1" parent="CR3bCK5xrk-jNO6QwSpg-10">
          <mxGeometry x="366" y="130" width="90" height="30" as="geometry" />
        </mxCell>
        <mxCell id="CR3bCK5xrk-jNO6QwSpg-74" value="&lt;font size=&quot;1&quot;&gt;Dados cliente&lt;/font&gt;" style="text;html=1;align=center;verticalAlign=middle;resizable=0;points=[];autosize=1;strokeColor=none;fillColor=none;" vertex="1" parent="CR3bCK5xrk-jNO6QwSpg-10">
          <mxGeometry x="456" y="90" width="80" height="30" as="geometry" />
        </mxCell>
        <mxCell id="CR3bCK5xrk-jNO6QwSpg-75" value="&lt;font size=&quot;1&quot;&gt;Datas Disponíveis&lt;/font&gt;" style="text;html=1;align=center;verticalAlign=middle;resizable=0;points=[];autosize=1;strokeColor=none;fillColor=none;" vertex="1" parent="CR3bCK5xrk-jNO6QwSpg-10">
          <mxGeometry x="666" y="90" width="100" height="30" as="geometry" />
        </mxCell>
        <mxCell id="CR3bCK5xrk-jNO6QwSpg-76" value="&lt;font size=&quot;1&quot;&gt;Nome evento&lt;/font&gt;" style="text;html=1;align=center;verticalAlign=middle;resizable=0;points=[];autosize=1;strokeColor=none;fillColor=none;" vertex="1" parent="CR3bCK5xrk-jNO6QwSpg-10">
          <mxGeometry x="576" y="130" width="80" height="30" as="geometry" />
        </mxCell>
        <mxCell id="CR3bCK5xrk-jNO6QwSpg-77" value="&lt;font size=&quot;1&quot;&gt;Data escolhida&lt;/font&gt;" style="text;html=1;align=center;verticalAlign=middle;resizable=0;points=[];autosize=1;strokeColor=none;fillColor=none;" vertex="1" parent="CR3bCK5xrk-jNO6QwSpg-10">
          <mxGeometry x="831" y="130" width="90" height="30" as="geometry" />
        </mxCell>
        <mxCell id="CR3bCK5xrk-jNO6QwSpg-78" value="&lt;font size=&quot;1&quot;&gt;Confirmação&lt;/font&gt;" style="text;html=1;align=center;verticalAlign=middle;resizable=0;points=[];autosize=1;strokeColor=none;fillColor=none;" vertex="1" parent="CR3bCK5xrk-jNO6QwSpg-10">
          <mxGeometry x="921" y="110" width="80" height="30" as="geometry" />
        </mxCell>
        <mxCell id="CR3bCK5xrk-jNO6QwSpg-83" value="Boolean" style="text;html=1;align=center;verticalAlign=middle;resizable=0;points=[];autosize=1;strokeColor=none;fillColor=none;" vertex="1" parent="CR3bCK5xrk-jNO6QwSpg-10">
          <mxGeometry x="216" y="140" width="70" height="30" as="geometry" />
        </mxCell>
        <mxCell id="CR3bCK5xrk-jNO6QwSpg-72" value="&lt;font style=&quot;font-size: 9px;&quot;&gt;Dados Cliente&lt;/font&gt;" style="text;html=1;align=center;verticalAlign=middle;resizable=0;points=[];autosize=1;strokeColor=none;fillColor=none;" vertex="1" parent="CR3bCK5xrk-jNO6QwSpg-10">
          <mxGeometry x="126" y="140" width="80" height="30" as="geometry" />
        </mxCell>
        <mxCell id="CR3bCK5xrk-jNO6QwSpg-11" value="Sistema" style="swimlane;startSize=20;horizontal=0;html=1;whiteSpace=wrap;" vertex="1" parent="1">
          <mxGeometry x="254" y="480" width="1186" height="180" as="geometry" />
        </mxCell>
        <mxCell id="CR3bCK5xrk-jNO6QwSpg-36" value="" style="edgeStyle=orthogonalEdgeStyle;rounded=0;orthogonalLoop=1;jettySize=auto;html=1;" edge="1" parent="CR3bCK5xrk-jNO6QwSpg-11" source="CR3bCK5xrk-jNO6QwSpg-21" target="CR3bCK5xrk-jNO6QwSpg-35">
          <mxGeometry relative="1" as="geometry" />
        </mxCell>
        <mxCell id="CR3bCK5xrk-jNO6QwSpg-21" value="&lt;font style=&quot;font-size: 9px;&quot;&gt;Registrar cliente no Banco de Dados&lt;/font&gt;" style="rounded=1;whiteSpace=wrap;html=1;fillColor=#dae8fc;strokeColor=#6c8ebf;" vertex="1" parent="CR3bCK5xrk-jNO6QwSpg-11">
          <mxGeometry x="166" y="40" width="80" height="40" as="geometry" />
        </mxCell>
        <mxCell id="CR3bCK5xrk-jNO6QwSpg-34" value="" style="edgeStyle=orthogonalEdgeStyle;rounded=0;orthogonalLoop=1;jettySize=auto;html=1;" edge="1" parent="CR3bCK5xrk-jNO6QwSpg-11" source="CR3bCK5xrk-jNO6QwSpg-32" target="CR3bCK5xrk-jNO6QwSpg-21">
          <mxGeometry relative="1" as="geometry" />
        </mxCell>
        <mxCell id="CR3bCK5xrk-jNO6QwSpg-32" value="" style="ellipse;whiteSpace=wrap;html=1;aspect=fixed;fillColor=#d5e8d4;strokeColor=#82b366;fontStyle=1" vertex="1" parent="CR3bCK5xrk-jNO6QwSpg-11">
          <mxGeometry x="106" y="46.25" width="27.5" height="27.5" as="geometry" />
        </mxCell>
        <mxCell id="CR3bCK5xrk-jNO6QwSpg-35" value="" style="ellipse;whiteSpace=wrap;html=1;aspect=fixed;fillColor=#f8cecc;strokeColor=#b85450;" vertex="1" parent="CR3bCK5xrk-jNO6QwSpg-11">
          <mxGeometry x="276" y="46.25" width="27.5" height="27.5" as="geometry" />
        </mxCell>
        <mxCell id="CR3bCK5xrk-jNO6QwSpg-42" value="" style="edgeStyle=orthogonalEdgeStyle;rounded=0;orthogonalLoop=1;jettySize=auto;html=1;" edge="1" parent="CR3bCK5xrk-jNO6QwSpg-11" source="CR3bCK5xrk-jNO6QwSpg-37" target="CR3bCK5xrk-jNO6QwSpg-40">
          <mxGeometry relative="1" as="geometry" />
        </mxCell>
        <mxCell id="CR3bCK5xrk-jNO6QwSpg-37" value="&lt;font style=&quot;font-size: 9px;&quot;&gt;Validar credenciais no Banco de Dados&lt;/font&gt;" style="rounded=1;whiteSpace=wrap;html=1;fillColor=#dae8fc;strokeColor=#6c8ebf;" vertex="1" parent="CR3bCK5xrk-jNO6QwSpg-11">
          <mxGeometry x="406" y="40" width="80" height="40" as="geometry" />
        </mxCell>
        <mxCell id="CR3bCK5xrk-jNO6QwSpg-41" value="" style="edgeStyle=orthogonalEdgeStyle;rounded=0;orthogonalLoop=1;jettySize=auto;html=1;" edge="1" parent="CR3bCK5xrk-jNO6QwSpg-11" source="CR3bCK5xrk-jNO6QwSpg-39" target="CR3bCK5xrk-jNO6QwSpg-37">
          <mxGeometry relative="1" as="geometry" />
        </mxCell>
        <mxCell id="CR3bCK5xrk-jNO6QwSpg-39" value="" style="ellipse;whiteSpace=wrap;html=1;aspect=fixed;fillColor=#d5e8d4;strokeColor=#82b366;fontStyle=1" vertex="1" parent="CR3bCK5xrk-jNO6QwSpg-11">
          <mxGeometry x="347.25" y="46.25" width="27.5" height="27.5" as="geometry" />
        </mxCell>
        <mxCell id="CR3bCK5xrk-jNO6QwSpg-40" value="" style="ellipse;whiteSpace=wrap;html=1;aspect=fixed;fillColor=#f8cecc;strokeColor=#b85450;" vertex="1" parent="CR3bCK5xrk-jNO6QwSpg-11">
          <mxGeometry x="517.25" y="46.25" width="27.5" height="27.5" as="geometry" />
        </mxCell>
        <mxCell id="CR3bCK5xrk-jNO6QwSpg-48" value="" style="edgeStyle=orthogonalEdgeStyle;rounded=0;orthogonalLoop=1;jettySize=auto;html=1;" edge="1" parent="CR3bCK5xrk-jNO6QwSpg-11" source="CR3bCK5xrk-jNO6QwSpg-49" target="CR3bCK5xrk-jNO6QwSpg-52">
          <mxGeometry relative="1" as="geometry" />
        </mxCell>
        <mxCell id="CR3bCK5xrk-jNO6QwSpg-49" value="&lt;span style=&quot;font-size: 10px;&quot;&gt;Obter datas disponíveis&lt;/span&gt;" style="rounded=1;whiteSpace=wrap;html=1;fillColor=#dae8fc;strokeColor=#6c8ebf;" vertex="1" parent="CR3bCK5xrk-jNO6QwSpg-11">
          <mxGeometry x="631.75" y="40" width="80" height="40" as="geometry" />
        </mxCell>
        <mxCell id="CR3bCK5xrk-jNO6QwSpg-50" value="" style="edgeStyle=orthogonalEdgeStyle;rounded=0;orthogonalLoop=1;jettySize=auto;html=1;" edge="1" parent="CR3bCK5xrk-jNO6QwSpg-11" source="CR3bCK5xrk-jNO6QwSpg-51" target="CR3bCK5xrk-jNO6QwSpg-49">
          <mxGeometry relative="1" as="geometry" />
        </mxCell>
        <mxCell id="CR3bCK5xrk-jNO6QwSpg-51" value="" style="ellipse;whiteSpace=wrap;html=1;aspect=fixed;fillColor=#d5e8d4;strokeColor=#82b366;fontStyle=1" vertex="1" parent="CR3bCK5xrk-jNO6QwSpg-11">
          <mxGeometry x="573" y="46.25" width="27.5" height="27.5" as="geometry" />
        </mxCell>
        <mxCell id="CR3bCK5xrk-jNO6QwSpg-52" value="" style="ellipse;whiteSpace=wrap;html=1;aspect=fixed;fillColor=#f8cecc;strokeColor=#b85450;" vertex="1" parent="CR3bCK5xrk-jNO6QwSpg-11">
          <mxGeometry x="743" y="46.25" width="27.5" height="27.5" as="geometry" />
        </mxCell>
        <mxCell id="CR3bCK5xrk-jNO6QwSpg-58" value="" style="edgeStyle=orthogonalEdgeStyle;rounded=0;orthogonalLoop=1;jettySize=auto;html=1;" edge="1" parent="CR3bCK5xrk-jNO6QwSpg-11" source="CR3bCK5xrk-jNO6QwSpg-59" target="CR3bCK5xrk-jNO6QwSpg-62">
          <mxGeometry relative="1" as="geometry" />
        </mxCell>
        <mxCell id="CR3bCK5xrk-jNO6QwSpg-59" value="&lt;span style=&quot;font-size: 10px;&quot;&gt;Registrar evento&lt;/span&gt;" style="rounded=1;whiteSpace=wrap;html=1;fillColor=#dae8fc;strokeColor=#6c8ebf;" vertex="1" parent="CR3bCK5xrk-jNO6QwSpg-11">
          <mxGeometry x="884.75" y="40" width="195.25" height="40" as="geometry" />
        </mxCell>
        <mxCell id="CR3bCK5xrk-jNO6QwSpg-60" value="" style="edgeStyle=orthogonalEdgeStyle;rounded=0;orthogonalLoop=1;jettySize=auto;html=1;" edge="1" parent="CR3bCK5xrk-jNO6QwSpg-11" source="CR3bCK5xrk-jNO6QwSpg-61" target="CR3bCK5xrk-jNO6QwSpg-59">
          <mxGeometry relative="1" as="geometry" />
        </mxCell>
        <mxCell id="CR3bCK5xrk-jNO6QwSpg-61" value="" style="ellipse;whiteSpace=wrap;html=1;aspect=fixed;fillColor=#d5e8d4;strokeColor=#82b366;fontStyle=1" vertex="1" parent="CR3bCK5xrk-jNO6QwSpg-11">
          <mxGeometry x="826" y="46.25" width="27.5" height="27.5" as="geometry" />
        </mxCell>
        <mxCell id="CR3bCK5xrk-jNO6QwSpg-62" value="" style="ellipse;whiteSpace=wrap;html=1;aspect=fixed;fillColor=#f8cecc;strokeColor=#b85450;" vertex="1" parent="CR3bCK5xrk-jNO6QwSpg-11">
          <mxGeometry x="1126" y="46.25" width="27.5" height="27.5" as="geometry" />
        </mxCell>
        <mxCell id="CR3bCK5xrk-jNO6QwSpg-31" style="edgeStyle=orthogonalEdgeStyle;rounded=0;orthogonalLoop=1;jettySize=auto;html=1;entryX=0.5;entryY=0;entryDx=0;entryDy=0;dashed=1;startArrow=oval;startFill=0;endArrow=block;endFill=0;" edge="1" parent="1" source="CR3bCK5xrk-jNO6QwSpg-29" target="CR3bCK5xrk-jNO6QwSpg-21">
          <mxGeometry relative="1" as="geometry">
            <Array as="points">
              <mxPoint x="454" y="450" />
              <mxPoint x="460" y="450" />
            </Array>
          </mxGeometry>
        </mxCell>
        <mxCell id="CR3bCK5xrk-jNO6QwSpg-38" style="edgeStyle=orthogonalEdgeStyle;rounded=0;orthogonalLoop=1;jettySize=auto;html=1;startArrow=oval;startFill=0;endArrow=block;endFill=0;dashed=1;" edge="1" parent="1" source="CR3bCK5xrk-jNO6QwSpg-15" target="CR3bCK5xrk-jNO6QwSpg-37">
          <mxGeometry relative="1" as="geometry" />
        </mxCell>
        <mxCell id="CR3bCK5xrk-jNO6QwSpg-43" style="edgeStyle=orthogonalEdgeStyle;rounded=0;orthogonalLoop=1;jettySize=auto;html=1;entryX=0.72;entryY=1.009;entryDx=0;entryDy=0;entryPerimeter=0;startArrow=oval;startFill=0;endArrow=block;endFill=0;dashed=1;" edge="1" parent="1" source="CR3bCK5xrk-jNO6QwSpg-37" target="CR3bCK5xrk-jNO6QwSpg-15">
          <mxGeometry relative="1" as="geometry">
            <Array as="points">
              <mxPoint x="718" y="433" />
              <mxPoint x="718" y="433" />
            </Array>
          </mxGeometry>
        </mxCell>
        <mxCell id="CR3bCK5xrk-jNO6QwSpg-53" style="edgeStyle=orthogonalEdgeStyle;rounded=0;orthogonalLoop=1;jettySize=auto;html=1;entryX=0.303;entryY=0.065;entryDx=0;entryDy=0;entryPerimeter=0;startArrow=oval;startFill=0;dashed=1;endArrow=block;endFill=0;" edge="1" parent="1" source="CR3bCK5xrk-jNO6QwSpg-44" target="CR3bCK5xrk-jNO6QwSpg-49">
          <mxGeometry relative="1" as="geometry" />
        </mxCell>
        <mxCell id="CR3bCK5xrk-jNO6QwSpg-54" style="edgeStyle=orthogonalEdgeStyle;rounded=0;orthogonalLoop=1;jettySize=auto;html=1;entryX=0.69;entryY=0.989;entryDx=0;entryDy=0;entryPerimeter=0;startArrow=oval;startFill=0;dashed=1;endArrow=block;endFill=0;" edge="1" parent="1" source="CR3bCK5xrk-jNO6QwSpg-49" target="CR3bCK5xrk-jNO6QwSpg-44">
          <mxGeometry relative="1" as="geometry" />
        </mxCell>
        <mxCell id="CR3bCK5xrk-jNO6QwSpg-63" style="edgeStyle=orthogonalEdgeStyle;rounded=0;orthogonalLoop=1;jettySize=auto;html=1;entryX=0.158;entryY=-0.027;entryDx=0;entryDy=0;entryPerimeter=0;dashed=1;startArrow=oval;startFill=0;endArrow=block;endFill=0;" edge="1" parent="1" source="CR3bCK5xrk-jNO6QwSpg-55" target="CR3bCK5xrk-jNO6QwSpg-59">
          <mxGeometry relative="1" as="geometry" />
        </mxCell>
        <mxCell id="CR3bCK5xrk-jNO6QwSpg-64" style="edgeStyle=orthogonalEdgeStyle;rounded=0;orthogonalLoop=1;jettySize=auto;html=1;entryX=0.607;entryY=0.991;entryDx=0;entryDy=0;entryPerimeter=0;dashed=1;startArrow=oval;startFill=0;endArrow=block;endFill=0;exitX=0.25;exitY=0;exitDx=0;exitDy=0;" edge="1" parent="1" source="CR3bCK5xrk-jNO6QwSpg-59" target="CR3bCK5xrk-jNO6QwSpg-55">
          <mxGeometry relative="1" as="geometry" />
        </mxCell>
        <mxCell id="CR3bCK5xrk-jNO6QwSpg-71" style="edgeStyle=orthogonalEdgeStyle;rounded=0;orthogonalLoop=1;jettySize=auto;html=1;entryX=0.391;entryY=0.875;entryDx=0;entryDy=0;entryPerimeter=0;dashed=1;startArrow=oval;startFill=0;endArrow=block;endFill=0;" edge="1" parent="1" source="CR3bCK5xrk-jNO6QwSpg-59" target="CR3bCK5xrk-jNO6QwSpg-67">
          <mxGeometry relative="1" as="geometry">
            <Array as="points">
              <mxPoint x="1290" y="430" />
              <mxPoint x="1290" y="430" />
            </Array>
          </mxGeometry>
        </mxCell>
        <mxCell id="CR3bCK5xrk-jNO6QwSpg-79" style="edgeStyle=orthogonalEdgeStyle;rounded=0;orthogonalLoop=1;jettySize=auto;html=1;entryX=0.96;entryY=0.008;entryDx=0;entryDy=0;entryPerimeter=0;startArrow=oval;startFill=0;dashed=1;endArrow=block;endFill=0;" edge="1" parent="1" source="CR3bCK5xrk-jNO6QwSpg-67" target="CR3bCK5xrk-jNO6QwSpg-59">
          <mxGeometry relative="1" as="geometry">
            <Array as="points">
              <mxPoint x="1326" y="250" />
              <mxPoint x="1326" y="250" />
            </Array>
          </mxGeometry>
        </mxCell>
        <mxCell id="CR3bCK5xrk-jNO6QwSpg-82" style="edgeStyle=orthogonalEdgeStyle;rounded=0;orthogonalLoop=1;jettySize=auto;html=1;entryX=0.868;entryY=0.999;entryDx=0;entryDy=0;entryPerimeter=0;dashed=1;endArrow=block;endFill=0;" edge="1" parent="1" source="CR3bCK5xrk-jNO6QwSpg-21" target="CR3bCK5xrk-jNO6QwSpg-29">
          <mxGeometry relative="1" as="geometry">
            <Array as="points">
              <mxPoint x="480" y="455" />
              <mxPoint x="483" y="455" />
            </Array>
          </mxGeometry>
        </mxCell>
      </root>
    </mxGraphModel>
  </diagram>
</mxfile>
